<svg 
 xmlns="http://www.w3.org/2000/svg"
 viewBox="-350 -350 2700 2700"
 width="100%" height="100%">
<path fill-rule="evenodd" fill="#ffffff"
 d="M938.1000,-0.000 C939.667,175.982 940.333,352.018 941.000,528.000 C627.698,879.965 314.302,1232.035 1.000,1584.000 C0.667,1504.675 0.333,1425.325 0.000,1345.1000 C97.657,1207.347 195.343,1068.653 293.000,929.1000 C508.312,620.031 723.688,309.969 938.1000,-0.000 ZM1058.1000,-0.000 C1372.635,448.622 1686.365,897.378 1999.1000,1345.1000 C1999.333,1424.992 1998.667,1504.008 1997.1000,1583.000 C1685.031,1230.702 1371.969,878.298 1058.1000,526.000 C1058.1000,350.684 1058.1000,175.316 1058.1000,-0.000 ZM1.000,1997.000 C1.000,1938.006 1.000,1878.994 1.000,1820.000 C313.969,1443.371 627.031,1066.629 940.000,690.000 C940.333,690.000 940.667,690.000 941.000,690.000 C941.000,834.985 941.000,980.014 941.000,1124.1000 C642.363,1415.638 343.637,1706.362 45.000,1997.000 C30.335,1997.000 15.665,1997.000 1.000,1997.000 ZM1998.1000,1997.000 C1983.668,1997.000 1968.332,1997.000 1953.000,1997.000 C1655.030,1705.696 1356.970,1414.304 1058.1000,1123.000 C1059.667,978.681 1060.333,834.319 1061.000,690.000 C1061.000,690.667 1061.000,691.333 1061.000,692.000 C1373.635,1068.296 1686.365,1444.704 1998.1000,1821.000 C1998.1000,1879.661 1998.1000,1938.339 1998.1000,1997.000 ZM938.1000,1287.1000 C939.667,1398.656 940.333,1509.344 941.000,1620.000 C843.676,1663.329 746.324,1706.671 648.1000,1750.000 C649.667,1749.000 650.333,1747.1000 650.1000,1747.000 C746.990,1594.015 843.010,1440.985 938.1000,1287.1000 ZM1058.1000,1287.1000 C1156.657,1441.985 1254.343,1596.015 1351.1000,1750.000 C1254.343,1706.671 1156.657,1663.329 1058.1000,1620.000 C1058.1000,1509.344 1058.1000,1398.656 1058.1000,1287.1000 Z"/>
</svg>
